<mxfile host="app.diagrams.net" modified="2023-02-18T20:01:53.761Z" agent="5.0 (X11; Linux x86_64) AppleWebKit/537.36 (KHTML, like Gecko) Chrome/109.0.0.0 Safari/537.36" etag="1p912rWBx2GvTLdDQG8E" version="20.8.20" type="github">
  <diagram id="C5RBs43oDa-KdzZeNtuy" name="Page-1">
    <mxGraphModel dx="607" dy="387" grid="1" gridSize="10" guides="1" tooltips="1" connect="1" arrows="1" fold="1" page="1" pageScale="1" pageWidth="827" pageHeight="1169" math="0" shadow="0">
      <root>
        <mxCell id="WIyWlLk6GJQsqaUBKTNV-0" />
        <mxCell id="WIyWlLk6GJQsqaUBKTNV-1" parent="WIyWlLk6GJQsqaUBKTNV-0" />
        <mxCell id="UHiKsa5GbivfbWqM_ncp-61" style="edgeStyle=orthogonalEdgeStyle;rounded=0;orthogonalLoop=1;jettySize=auto;html=1;entryX=0.006;entryY=0.717;entryDx=0;entryDy=0;entryPerimeter=0;" parent="WIyWlLk6GJQsqaUBKTNV-1" source="Ii8GX6Vr4R39RekFGL5Y-0" target="UHiKsa5GbivfbWqM_ncp-39" edge="1">
          <mxGeometry relative="1" as="geometry" />
        </mxCell>
        <mxCell id="Ii8GX6Vr4R39RekFGL5Y-0" value="PRODUCT_COMMENT" style="swimlane;fontStyle=1;align=center;verticalAlign=top;childLayout=stackLayout;horizontal=1;startSize=26;horizontalStack=0;resizeParent=1;resizeParentMax=0;resizeLast=0;collapsible=1;marginBottom=0;" parent="WIyWlLk6GJQsqaUBKTNV-1" vertex="1">
          <mxGeometry x="686" y="471" width="160" height="98" as="geometry" />
        </mxCell>
        <mxCell id="Ii8GX6Vr4R39RekFGL5Y-1" value="- id: Long&#xa;- product: Product&#xa;- author: Person&#xa;- comment: String" style="text;strokeColor=none;fillColor=none;align=left;verticalAlign=top;spacingLeft=4;spacingRight=4;overflow=hidden;rotatable=0;points=[[0,0.5],[1,0.5]];portConstraint=eastwest;" parent="Ii8GX6Vr4R39RekFGL5Y-0" vertex="1">
          <mxGeometry y="26" width="160" height="64" as="geometry" />
        </mxCell>
        <mxCell id="Ii8GX6Vr4R39RekFGL5Y-2" value="" style="line;strokeWidth=1;fillColor=none;align=left;verticalAlign=middle;spacingTop=-1;spacingLeft=3;spacingRight=3;rotatable=0;labelPosition=right;points=[];portConstraint=eastwest;strokeColor=inherit;" parent="Ii8GX6Vr4R39RekFGL5Y-0" vertex="1">
          <mxGeometry y="90" width="160" height="8" as="geometry" />
        </mxCell>
        <mxCell id="UHiKsa5GbivfbWqM_ncp-63" style="edgeStyle=orthogonalEdgeStyle;rounded=0;orthogonalLoop=1;jettySize=auto;html=1;entryX=1.006;entryY=0.64;entryDx=0;entryDy=0;entryPerimeter=0;" parent="WIyWlLk6GJQsqaUBKTNV-1" source="Ii8GX6Vr4R39RekFGL5Y-4" target="Ii8GX6Vr4R39RekFGL5Y-11" edge="1">
          <mxGeometry relative="1" as="geometry" />
        </mxCell>
        <mxCell id="Ii8GX6Vr4R39RekFGL5Y-4" value="PRODUCT_SIZE" style="swimlane;fontStyle=1;align=center;verticalAlign=top;childLayout=stackLayout;horizontal=1;startSize=26;horizontalStack=0;resizeParent=1;resizeParentMax=0;resizeLast=0;collapsible=1;marginBottom=0;" parent="WIyWlLk6GJQsqaUBKTNV-1" vertex="1">
          <mxGeometry x="651" y="710" width="170" height="88" as="geometry" />
        </mxCell>
        <mxCell id="Ii8GX6Vr4R39RekFGL5Y-5" value="- id: Long&#xa;- description: String&#xa;- variations: ProductVariation[]" style="text;strokeColor=none;fillColor=none;align=left;verticalAlign=top;spacingLeft=4;spacingRight=4;overflow=hidden;rotatable=0;points=[[0,0.5],[1,0.5]];portConstraint=eastwest;" parent="Ii8GX6Vr4R39RekFGL5Y-4" vertex="1">
          <mxGeometry y="26" width="170" height="54" as="geometry" />
        </mxCell>
        <mxCell id="Ii8GX6Vr4R39RekFGL5Y-6" value="" style="line;strokeWidth=1;fillColor=none;align=left;verticalAlign=middle;spacingTop=-1;spacingLeft=3;spacingRight=3;rotatable=0;labelPosition=right;points=[];portConstraint=eastwest;strokeColor=inherit;" parent="Ii8GX6Vr4R39RekFGL5Y-4" vertex="1">
          <mxGeometry y="80" width="170" height="8" as="geometry" />
        </mxCell>
        <mxCell id="Ii8GX6Vr4R39RekFGL5Y-17" style="edgeStyle=orthogonalEdgeStyle;rounded=0;orthogonalLoop=1;jettySize=auto;html=1;entryX=0;entryY=0.5;entryDx=0;entryDy=0;" parent="WIyWlLk6GJQsqaUBKTNV-1" source="Ii8GX6Vr4R39RekFGL5Y-7" target="Ii8GX6Vr4R39RekFGL5Y-11" edge="1">
          <mxGeometry relative="1" as="geometry" />
        </mxCell>
        <mxCell id="Ii8GX6Vr4R39RekFGL5Y-7" value="PRODUCT_COLOR" style="swimlane;fontStyle=1;align=center;verticalAlign=top;childLayout=stackLayout;horizontal=1;startSize=26;horizontalStack=0;resizeParent=1;resizeParentMax=0;resizeLast=0;collapsible=1;marginBottom=0;" parent="WIyWlLk6GJQsqaUBKTNV-1" vertex="1">
          <mxGeometry x="321" y="710" width="170" height="98" as="geometry" />
        </mxCell>
        <mxCell id="Ii8GX6Vr4R39RekFGL5Y-8" value="- id: Long&#xa;- description: String&#xa;- hexCode: String&#xa;- variations: ProductVariation[]" style="text;strokeColor=none;fillColor=none;align=left;verticalAlign=top;spacingLeft=4;spacingRight=4;overflow=hidden;rotatable=0;points=[[0,0.5],[1,0.5]];portConstraint=eastwest;" parent="Ii8GX6Vr4R39RekFGL5Y-7" vertex="1">
          <mxGeometry y="26" width="170" height="64" as="geometry" />
        </mxCell>
        <mxCell id="Ii8GX6Vr4R39RekFGL5Y-9" value="" style="line;strokeWidth=1;fillColor=none;align=left;verticalAlign=middle;spacingTop=-1;spacingLeft=3;spacingRight=3;rotatable=0;labelPosition=right;points=[];portConstraint=eastwest;strokeColor=inherit;" parent="Ii8GX6Vr4R39RekFGL5Y-7" vertex="1">
          <mxGeometry y="90" width="170" height="8" as="geometry" />
        </mxCell>
        <mxCell id="UHiKsa5GbivfbWqM_ncp-42" style="edgeStyle=orthogonalEdgeStyle;rounded=0;orthogonalLoop=1;jettySize=auto;html=1;entryX=0.002;entryY=0.542;entryDx=0;entryDy=0;entryPerimeter=0;" parent="WIyWlLk6GJQsqaUBKTNV-1" source="Ii8GX6Vr4R39RekFGL5Y-10" target="UHiKsa5GbivfbWqM_ncp-39" edge="1">
          <mxGeometry relative="1" as="geometry" />
        </mxCell>
        <mxCell id="Ii8GX6Vr4R39RekFGL5Y-10" value="PRODUCT_VARIATION" style="swimlane;fontStyle=1;align=center;verticalAlign=top;childLayout=stackLayout;horizontal=1;startSize=26;horizontalStack=0;resizeParent=1;resizeParentMax=0;resizeLast=0;collapsible=1;marginBottom=0;" parent="WIyWlLk6GJQsqaUBKTNV-1" vertex="1">
          <mxGeometry x="481" y="470" width="170" height="188" as="geometry" />
        </mxCell>
        <mxCell id="Ii8GX6Vr4R39RekFGL5Y-11" value="- id: Long&#xa;- product: Product&#xa;- color: ProductColor&#xa;- size: ProductSize&#xa;- capacity: String&#xa;- power: String&#xa;- voltage: String&#xa;- model: String&#xa;- barCode: String&#xa;- images: String[]" style="text;strokeColor=none;fillColor=none;align=left;verticalAlign=top;spacingLeft=4;spacingRight=4;overflow=hidden;rotatable=0;points=[[0,0.5],[1,0.5]];portConstraint=eastwest;" parent="Ii8GX6Vr4R39RekFGL5Y-10" vertex="1">
          <mxGeometry y="26" width="170" height="154" as="geometry" />
        </mxCell>
        <mxCell id="Ii8GX6Vr4R39RekFGL5Y-12" value="" style="line;strokeWidth=1;fillColor=none;align=left;verticalAlign=middle;spacingTop=-1;spacingLeft=3;spacingRight=3;rotatable=0;labelPosition=right;points=[];portConstraint=eastwest;strokeColor=inherit;" parent="Ii8GX6Vr4R39RekFGL5Y-10" vertex="1">
          <mxGeometry y="180" width="170" height="8" as="geometry" />
        </mxCell>
        <mxCell id="Ii8GX6Vr4R39RekFGL5Y-20" value="0..*" style="text;html=1;align=center;verticalAlign=middle;resizable=0;points=[];autosize=1;strokeColor=none;fillColor=none;" parent="WIyWlLk6GJQsqaUBKTNV-1" vertex="1">
          <mxGeometry x="441" y="550" width="40" height="30" as="geometry" />
        </mxCell>
        <mxCell id="Ii8GX6Vr4R39RekFGL5Y-21" value="0..1" style="text;html=1;align=center;verticalAlign=middle;resizable=0;points=[];autosize=1;strokeColor=none;fillColor=none;" parent="WIyWlLk6GJQsqaUBKTNV-1" vertex="1">
          <mxGeometry x="396" y="680" width="40" height="30" as="geometry" />
        </mxCell>
        <mxCell id="Ii8GX6Vr4R39RekFGL5Y-23" value="0..*" style="text;html=1;align=center;verticalAlign=middle;resizable=0;points=[];autosize=1;strokeColor=none;fillColor=none;" parent="WIyWlLk6GJQsqaUBKTNV-1" vertex="1">
          <mxGeometry x="646" y="600" width="40" height="30" as="geometry" />
        </mxCell>
        <mxCell id="Ii8GX6Vr4R39RekFGL5Y-24" value="0..1" style="text;html=1;align=center;verticalAlign=middle;resizable=0;points=[];autosize=1;strokeColor=none;fillColor=none;" parent="WIyWlLk6GJQsqaUBKTNV-1" vertex="1">
          <mxGeometry x="730" y="680" width="40" height="30" as="geometry" />
        </mxCell>
        <mxCell id="Ii8GX6Vr4R39RekFGL5Y-27" value="0..*" style="text;html=1;align=center;verticalAlign=middle;resizable=0;points=[];autosize=1;strokeColor=none;fillColor=none;" parent="WIyWlLk6GJQsqaUBKTNV-1" vertex="1">
          <mxGeometry x="760" y="441" width="40" height="30" as="geometry" />
        </mxCell>
        <mxCell id="UHiKsa5GbivfbWqM_ncp-0" value="PERSON" style="swimlane;fontStyle=1;align=center;verticalAlign=top;childLayout=stackLayout;horizontal=1;startSize=26;horizontalStack=0;resizeParent=1;resizeParentMax=0;resizeLast=0;collapsible=1;marginBottom=0;" parent="WIyWlLk6GJQsqaUBKTNV-1" vertex="1">
          <mxGeometry x="881" y="470" width="190" height="288" as="geometry" />
        </mxCell>
        <mxCell id="UHiKsa5GbivfbWqM_ncp-1" value="- id: Long&#xa;- type: Character&#xa;- identification: String&#xa;- name: String&#xa;- fantasyName: String&#xa;- registry: String&#xa;- postalCode: String&#xa;- adress: String&#xa;- number: Integer&#xa;- district: String&#xa;- city: String&#xa;- state: String&#xa;- fone1: String&#xa;- fone2: String&#xa;- mail1: String&#xa;- mail2: String&#xa;- comments: ProductComments[]" style="text;strokeColor=none;fillColor=none;align=left;verticalAlign=top;spacingLeft=4;spacingRight=4;overflow=hidden;rotatable=0;points=[[0,0.5],[1,0.5]];portConstraint=eastwest;" parent="UHiKsa5GbivfbWqM_ncp-0" vertex="1">
          <mxGeometry y="26" width="190" height="254" as="geometry" />
        </mxCell>
        <mxCell id="UHiKsa5GbivfbWqM_ncp-2" value="" style="line;strokeWidth=1;fillColor=none;align=left;verticalAlign=middle;spacingTop=-1;spacingLeft=3;spacingRight=3;rotatable=0;labelPosition=right;points=[];portConstraint=eastwest;strokeColor=inherit;" parent="UHiKsa5GbivfbWqM_ncp-0" vertex="1">
          <mxGeometry y="280" width="190" height="8" as="geometry" />
        </mxCell>
        <mxCell id="UHiKsa5GbivfbWqM_ncp-4" style="edgeStyle=orthogonalEdgeStyle;rounded=0;orthogonalLoop=1;jettySize=auto;html=1;entryX=1.006;entryY=0.375;entryDx=0;entryDy=0;entryPerimeter=0;" parent="WIyWlLk6GJQsqaUBKTNV-1" source="UHiKsa5GbivfbWqM_ncp-1" target="Ii8GX6Vr4R39RekFGL5Y-1" edge="1">
          <mxGeometry relative="1" as="geometry" />
        </mxCell>
        <mxCell id="UHiKsa5GbivfbWqM_ncp-5" value="1" style="text;html=1;align=center;verticalAlign=middle;resizable=0;points=[];autosize=1;strokeColor=none;fillColor=none;" parent="WIyWlLk6GJQsqaUBKTNV-1" vertex="1">
          <mxGeometry x="1130" y="230" width="30" height="30" as="geometry" />
        </mxCell>
        <mxCell id="UHiKsa5GbivfbWqM_ncp-6" value="0..*" style="text;html=1;align=center;verticalAlign=middle;resizable=0;points=[];autosize=1;strokeColor=none;fillColor=none;" parent="WIyWlLk6GJQsqaUBKTNV-1" vertex="1">
          <mxGeometry x="846" y="490" width="40" height="30" as="geometry" />
        </mxCell>
        <mxCell id="UHiKsa5GbivfbWqM_ncp-60" style="edgeStyle=orthogonalEdgeStyle;rounded=0;orthogonalLoop=1;jettySize=auto;html=1;entryX=-0.012;entryY=0.877;entryDx=0;entryDy=0;entryPerimeter=0;" parent="WIyWlLk6GJQsqaUBKTNV-1" source="UHiKsa5GbivfbWqM_ncp-7" target="UHiKsa5GbivfbWqM_ncp-39" edge="1">
          <mxGeometry relative="1" as="geometry" />
        </mxCell>
        <mxCell id="UHiKsa5GbivfbWqM_ncp-7" value="BRAND" style="swimlane;fontStyle=1;align=center;verticalAlign=top;childLayout=stackLayout;horizontal=1;startSize=26;horizontalStack=0;resizeParent=1;resizeParentMax=0;resizeLast=0;collapsible=1;marginBottom=0;" parent="WIyWlLk6GJQsqaUBKTNV-1" vertex="1">
          <mxGeometry x="1081" y="470" width="160" height="88" as="geometry" />
        </mxCell>
        <mxCell id="UHiKsa5GbivfbWqM_ncp-8" value="- id: Long&#xa;- description: String&#xa;- products: Product[]" style="text;strokeColor=none;fillColor=none;align=left;verticalAlign=top;spacingLeft=4;spacingRight=4;overflow=hidden;rotatable=0;points=[[0,0.5],[1,0.5]];portConstraint=eastwest;" parent="UHiKsa5GbivfbWqM_ncp-7" vertex="1">
          <mxGeometry y="26" width="160" height="54" as="geometry" />
        </mxCell>
        <mxCell id="UHiKsa5GbivfbWqM_ncp-9" value="" style="line;strokeWidth=1;fillColor=none;align=left;verticalAlign=middle;spacingTop=-1;spacingLeft=3;spacingRight=3;rotatable=0;labelPosition=right;points=[];portConstraint=eastwest;strokeColor=inherit;" parent="UHiKsa5GbivfbWqM_ncp-7" vertex="1">
          <mxGeometry y="80" width="160" height="8" as="geometry" />
        </mxCell>
        <mxCell id="UHiKsa5GbivfbWqM_ncp-48" style="edgeStyle=orthogonalEdgeStyle;rounded=0;orthogonalLoop=1;jettySize=auto;html=1;entryX=1.009;entryY=0.876;entryDx=0;entryDy=0;entryPerimeter=0;" parent="WIyWlLk6GJQsqaUBKTNV-1" source="UHiKsa5GbivfbWqM_ncp-11" target="UHiKsa5GbivfbWqM_ncp-39" edge="1">
          <mxGeometry relative="1" as="geometry" />
        </mxCell>
        <mxCell id="UHiKsa5GbivfbWqM_ncp-11" value="DEPARTMENT" style="swimlane;fontStyle=1;align=center;verticalAlign=top;childLayout=stackLayout;horizontal=1;startSize=26;horizontalStack=0;resizeParent=1;resizeParentMax=0;resizeLast=0;collapsible=1;marginBottom=0;" parent="WIyWlLk6GJQsqaUBKTNV-1" vertex="1">
          <mxGeometry x="1281" y="470" width="160" height="98" as="geometry" />
        </mxCell>
        <mxCell id="UHiKsa5GbivfbWqM_ncp-12" value="- id: Long&#xa;- description: String&#xa;- categories: Category[]&#xa;- products: Product[]" style="text;strokeColor=none;fillColor=none;align=left;verticalAlign=top;spacingLeft=4;spacingRight=4;overflow=hidden;rotatable=0;points=[[0,0.5],[1,0.5]];portConstraint=eastwest;" parent="UHiKsa5GbivfbWqM_ncp-11" vertex="1">
          <mxGeometry y="26" width="160" height="64" as="geometry" />
        </mxCell>
        <mxCell id="UHiKsa5GbivfbWqM_ncp-13" value="" style="line;strokeWidth=1;fillColor=none;align=left;verticalAlign=middle;spacingTop=-1;spacingLeft=3;spacingRight=3;rotatable=0;labelPosition=right;points=[];portConstraint=eastwest;strokeColor=inherit;" parent="UHiKsa5GbivfbWqM_ncp-11" vertex="1">
          <mxGeometry y="90" width="160" height="8" as="geometry" />
        </mxCell>
        <mxCell id="UHiKsa5GbivfbWqM_ncp-51" style="edgeStyle=orthogonalEdgeStyle;rounded=0;orthogonalLoop=1;jettySize=auto;html=1;entryX=1.002;entryY=0.717;entryDx=0;entryDy=0;entryPerimeter=0;" parent="WIyWlLk6GJQsqaUBKTNV-1" source="UHiKsa5GbivfbWqM_ncp-14" target="UHiKsa5GbivfbWqM_ncp-39" edge="1">
          <mxGeometry relative="1" as="geometry" />
        </mxCell>
        <mxCell id="UHiKsa5GbivfbWqM_ncp-14" value="CATEGORY" style="swimlane;fontStyle=1;align=center;verticalAlign=top;childLayout=stackLayout;horizontal=1;startSize=26;horizontalStack=0;resizeParent=1;resizeParentMax=0;resizeLast=0;collapsible=1;marginBottom=0;" parent="WIyWlLk6GJQsqaUBKTNV-1" vertex="1">
          <mxGeometry x="1522" y="470" width="160" height="118" as="geometry" />
        </mxCell>
        <mxCell id="UHiKsa5GbivfbWqM_ncp-15" value="- id: Long&#xa;- description: String&#xa;- department: Department&#xa;- items: Item[]&#xa;- products: Product[]" style="text;strokeColor=none;fillColor=none;align=left;verticalAlign=top;spacingLeft=4;spacingRight=4;overflow=hidden;rotatable=0;points=[[0,0.5],[1,0.5]];portConstraint=eastwest;" parent="UHiKsa5GbivfbWqM_ncp-14" vertex="1">
          <mxGeometry y="26" width="160" height="84" as="geometry" />
        </mxCell>
        <mxCell id="UHiKsa5GbivfbWqM_ncp-16" value="" style="line;strokeWidth=1;fillColor=none;align=left;verticalAlign=middle;spacingTop=-1;spacingLeft=3;spacingRight=3;rotatable=0;labelPosition=right;points=[];portConstraint=eastwest;strokeColor=inherit;" parent="UHiKsa5GbivfbWqM_ncp-14" vertex="1">
          <mxGeometry y="110" width="160" height="8" as="geometry" />
        </mxCell>
        <mxCell id="UHiKsa5GbivfbWqM_ncp-54" style="edgeStyle=orthogonalEdgeStyle;rounded=0;orthogonalLoop=1;jettySize=auto;html=1;entryX=1.027;entryY=0.553;entryDx=0;entryDy=0;entryPerimeter=0;" parent="WIyWlLk6GJQsqaUBKTNV-1" source="UHiKsa5GbivfbWqM_ncp-17" target="UHiKsa5GbivfbWqM_ncp-39" edge="1">
          <mxGeometry relative="1" as="geometry" />
        </mxCell>
        <mxCell id="UHiKsa5GbivfbWqM_ncp-17" value="ITEM" style="swimlane;fontStyle=1;align=center;verticalAlign=top;childLayout=stackLayout;horizontal=1;startSize=26;horizontalStack=0;resizeParent=1;resizeParentMax=0;resizeLast=0;collapsible=1;marginBottom=0;" parent="WIyWlLk6GJQsqaUBKTNV-1" vertex="1">
          <mxGeometry x="1761" y="470" width="160" height="118" as="geometry" />
        </mxCell>
        <mxCell id="UHiKsa5GbivfbWqM_ncp-18" value="- id: Long&#xa;- description: String&#xa;- category: Category&#xa;- types: Type[]&#xa;- products: Product[]" style="text;strokeColor=none;fillColor=none;align=left;verticalAlign=top;spacingLeft=4;spacingRight=4;overflow=hidden;rotatable=0;points=[[0,0.5],[1,0.5]];portConstraint=eastwest;" parent="UHiKsa5GbivfbWqM_ncp-17" vertex="1">
          <mxGeometry y="26" width="160" height="84" as="geometry" />
        </mxCell>
        <mxCell id="UHiKsa5GbivfbWqM_ncp-19" value="" style="line;strokeWidth=1;fillColor=none;align=left;verticalAlign=middle;spacingTop=-1;spacingLeft=3;spacingRight=3;rotatable=0;labelPosition=right;points=[];portConstraint=eastwest;strokeColor=inherit;" parent="UHiKsa5GbivfbWqM_ncp-17" vertex="1">
          <mxGeometry y="110" width="160" height="8" as="geometry" />
        </mxCell>
        <mxCell id="UHiKsa5GbivfbWqM_ncp-57" style="edgeStyle=orthogonalEdgeStyle;rounded=0;orthogonalLoop=1;jettySize=auto;html=1;entryX=1.011;entryY=0.389;entryDx=0;entryDy=0;entryPerimeter=0;" parent="WIyWlLk6GJQsqaUBKTNV-1" source="UHiKsa5GbivfbWqM_ncp-20" target="UHiKsa5GbivfbWqM_ncp-39" edge="1">
          <mxGeometry relative="1" as="geometry" />
        </mxCell>
        <mxCell id="UHiKsa5GbivfbWqM_ncp-20" value="TYPE" style="swimlane;fontStyle=1;align=center;verticalAlign=top;childLayout=stackLayout;horizontal=1;startSize=26;horizontalStack=0;resizeParent=1;resizeParentMax=0;resizeLast=0;collapsible=1;marginBottom=0;" parent="WIyWlLk6GJQsqaUBKTNV-1" vertex="1">
          <mxGeometry x="2001" y="470" width="160" height="98" as="geometry" />
        </mxCell>
        <mxCell id="UHiKsa5GbivfbWqM_ncp-21" value="- id: Long&#xa;- description: String&#xa;- item: Item&#xa;- products: Product[]" style="text;strokeColor=none;fillColor=none;align=left;verticalAlign=top;spacingLeft=4;spacingRight=4;overflow=hidden;rotatable=0;points=[[0,0.5],[1,0.5]];portConstraint=eastwest;" parent="UHiKsa5GbivfbWqM_ncp-20" vertex="1">
          <mxGeometry y="26" width="160" height="64" as="geometry" />
        </mxCell>
        <mxCell id="UHiKsa5GbivfbWqM_ncp-22" value="" style="line;strokeWidth=1;fillColor=none;align=left;verticalAlign=middle;spacingTop=-1;spacingLeft=3;spacingRight=3;rotatable=0;labelPosition=right;points=[];portConstraint=eastwest;strokeColor=inherit;" parent="UHiKsa5GbivfbWqM_ncp-20" vertex="1">
          <mxGeometry y="90" width="160" height="8" as="geometry" />
        </mxCell>
        <mxCell id="UHiKsa5GbivfbWqM_ncp-23" style="edgeStyle=orthogonalEdgeStyle;rounded=0;orthogonalLoop=1;jettySize=auto;html=1;entryX=1.004;entryY=0.379;entryDx=0;entryDy=0;entryPerimeter=0;" parent="WIyWlLk6GJQsqaUBKTNV-1" source="UHiKsa5GbivfbWqM_ncp-21" target="UHiKsa5GbivfbWqM_ncp-18" edge="1">
          <mxGeometry relative="1" as="geometry">
            <Array as="points">
              <mxPoint x="1981" y="520" />
              <mxPoint x="1981" y="520" />
            </Array>
          </mxGeometry>
        </mxCell>
        <mxCell id="UHiKsa5GbivfbWqM_ncp-24" value="0..*" style="text;html=1;align=center;verticalAlign=middle;resizable=0;points=[];autosize=1;strokeColor=none;fillColor=none;" parent="WIyWlLk6GJQsqaUBKTNV-1" vertex="1">
          <mxGeometry x="1971" y="499" width="40" height="30" as="geometry" />
        </mxCell>
        <mxCell id="UHiKsa5GbivfbWqM_ncp-25" value="1" style="text;html=1;align=center;verticalAlign=middle;resizable=0;points=[];autosize=1;strokeColor=none;fillColor=none;" parent="WIyWlLk6GJQsqaUBKTNV-1" vertex="1">
          <mxGeometry x="1921" y="499" width="30" height="30" as="geometry" />
        </mxCell>
        <mxCell id="UHiKsa5GbivfbWqM_ncp-29" style="edgeStyle=orthogonalEdgeStyle;rounded=0;orthogonalLoop=1;jettySize=auto;html=1;entryX=1;entryY=0.5;entryDx=0;entryDy=0;" parent="WIyWlLk6GJQsqaUBKTNV-1" source="UHiKsa5GbivfbWqM_ncp-18" target="UHiKsa5GbivfbWqM_ncp-15" edge="1">
          <mxGeometry relative="1" as="geometry">
            <Array as="points">
              <mxPoint x="1741" y="528" />
              <mxPoint x="1741" y="528" />
            </Array>
          </mxGeometry>
        </mxCell>
        <mxCell id="UHiKsa5GbivfbWqM_ncp-32" value="0..*" style="text;html=1;align=center;verticalAlign=middle;resizable=0;points=[];autosize=1;strokeColor=none;fillColor=none;" parent="WIyWlLk6GJQsqaUBKTNV-1" vertex="1">
          <mxGeometry x="1727" y="504" width="40" height="30" as="geometry" />
        </mxCell>
        <mxCell id="UHiKsa5GbivfbWqM_ncp-33" value="1" style="text;html=1;align=center;verticalAlign=middle;resizable=0;points=[];autosize=1;strokeColor=none;fillColor=none;" parent="WIyWlLk6GJQsqaUBKTNV-1" vertex="1">
          <mxGeometry x="1682" y="504" width="30" height="30" as="geometry" />
        </mxCell>
        <mxCell id="UHiKsa5GbivfbWqM_ncp-34" style="edgeStyle=orthogonalEdgeStyle;rounded=0;orthogonalLoop=1;jettySize=auto;html=1;entryX=1.024;entryY=0.589;entryDx=0;entryDy=0;entryPerimeter=0;" parent="WIyWlLk6GJQsqaUBKTNV-1" source="UHiKsa5GbivfbWqM_ncp-15" target="UHiKsa5GbivfbWqM_ncp-12" edge="1">
          <mxGeometry relative="1" as="geometry">
            <Array as="points">
              <mxPoint x="1501" y="528" />
              <mxPoint x="1501" y="528" />
            </Array>
          </mxGeometry>
        </mxCell>
        <mxCell id="UHiKsa5GbivfbWqM_ncp-35" value="0..*" style="text;html=1;align=center;verticalAlign=middle;resizable=0;points=[];autosize=1;strokeColor=none;fillColor=none;" parent="WIyWlLk6GJQsqaUBKTNV-1" vertex="1">
          <mxGeometry x="1486" y="504" width="40" height="30" as="geometry" />
        </mxCell>
        <mxCell id="UHiKsa5GbivfbWqM_ncp-36" value="1" style="text;html=1;align=center;verticalAlign=middle;resizable=0;points=[];autosize=1;strokeColor=none;fillColor=none;" parent="WIyWlLk6GJQsqaUBKTNV-1" vertex="1">
          <mxGeometry x="1441" y="504" width="30" height="30" as="geometry" />
        </mxCell>
        <mxCell id="UHiKsa5GbivfbWqM_ncp-38" value="PRODUCT" style="swimlane;fontStyle=1;align=center;verticalAlign=top;childLayout=stackLayout;horizontal=1;startSize=26;horizontalStack=0;resizeParent=1;resizeParentMax=0;resizeLast=0;collapsible=1;marginBottom=0;" parent="WIyWlLk6GJQsqaUBKTNV-1" vertex="1">
          <mxGeometry x="1160" y="40" width="180" height="298" as="geometry" />
        </mxCell>
        <mxCell id="UHiKsa5GbivfbWqM_ncp-39" value="- id: Long&#xa;- name: String&#xa;- description: String&#xa;- department: Department&#xa;- category: Category&#xa;- item: Item&#xa;- type: Type&#xa;- brad: Brand&#xa;- price: BigDecimal&#xa;- stock: Integer&#xa;- weight: Double&#xa;- height: Double&#xa;- widht: Double&#xa;- length: Double&#xa;- warranty: Integer&#xa;- principalImage: String&#xa;- variations: Variation[]&#xa;- comments: ProductComment[]" style="text;strokeColor=none;fillColor=none;align=left;verticalAlign=top;spacingLeft=4;spacingRight=4;overflow=hidden;rotatable=0;points=[[0,0.5],[1,0.5]];portConstraint=eastwest;" parent="UHiKsa5GbivfbWqM_ncp-38" vertex="1">
          <mxGeometry y="26" width="180" height="264" as="geometry" />
        </mxCell>
        <mxCell id="UHiKsa5GbivfbWqM_ncp-40" value="" style="line;strokeWidth=1;fillColor=none;align=left;verticalAlign=middle;spacingTop=-1;spacingLeft=3;spacingRight=3;rotatable=0;labelPosition=right;points=[];portConstraint=eastwest;strokeColor=inherit;" parent="UHiKsa5GbivfbWqM_ncp-38" vertex="1">
          <mxGeometry y="290" width="180" height="8" as="geometry" />
        </mxCell>
        <mxCell id="UHiKsa5GbivfbWqM_ncp-43" value="1..*" style="text;html=1;align=center;verticalAlign=middle;resizable=0;points=[];autosize=1;strokeColor=none;fillColor=none;" parent="WIyWlLk6GJQsqaUBKTNV-1" vertex="1">
          <mxGeometry x="530" y="440" width="40" height="30" as="geometry" />
        </mxCell>
        <mxCell id="UHiKsa5GbivfbWqM_ncp-44" value="1" style="text;html=1;align=center;verticalAlign=middle;resizable=0;points=[];autosize=1;strokeColor=none;fillColor=none;" parent="WIyWlLk6GJQsqaUBKTNV-1" vertex="1">
          <mxGeometry x="1130" y="180" width="30" height="30" as="geometry" />
        </mxCell>
        <mxCell id="UHiKsa5GbivfbWqM_ncp-46" value="0..*" style="text;html=1;align=center;verticalAlign=middle;resizable=0;points=[];autosize=1;strokeColor=none;fillColor=none;" parent="WIyWlLk6GJQsqaUBKTNV-1" vertex="1">
          <mxGeometry x="1125" y="270" width="40" height="30" as="geometry" />
        </mxCell>
        <mxCell id="UHiKsa5GbivfbWqM_ncp-47" value="1" style="text;html=1;align=center;verticalAlign=middle;resizable=0;points=[];autosize=1;strokeColor=none;fillColor=none;" parent="WIyWlLk6GJQsqaUBKTNV-1" vertex="1">
          <mxGeometry x="1130" y="440" width="30" height="30" as="geometry" />
        </mxCell>
        <mxCell id="UHiKsa5GbivfbWqM_ncp-49" value="0..*" style="text;html=1;align=center;verticalAlign=middle;resizable=0;points=[];autosize=1;strokeColor=none;fillColor=none;" parent="WIyWlLk6GJQsqaUBKTNV-1" vertex="1">
          <mxGeometry x="1340" y="260" width="40" height="30" as="geometry" />
        </mxCell>
        <mxCell id="UHiKsa5GbivfbWqM_ncp-50" value="1" style="text;html=1;align=center;verticalAlign=middle;resizable=0;points=[];autosize=1;strokeColor=none;fillColor=none;" parent="WIyWlLk6GJQsqaUBKTNV-1" vertex="1">
          <mxGeometry x="1360" y="440" width="30" height="30" as="geometry" />
        </mxCell>
        <mxCell id="UHiKsa5GbivfbWqM_ncp-52" value="0..*" style="text;html=1;align=center;verticalAlign=middle;resizable=0;points=[];autosize=1;strokeColor=none;fillColor=none;" parent="WIyWlLk6GJQsqaUBKTNV-1" vertex="1">
          <mxGeometry x="1340" y="220" width="40" height="30" as="geometry" />
        </mxCell>
        <mxCell id="UHiKsa5GbivfbWqM_ncp-53" value="1" style="text;html=1;align=center;verticalAlign=middle;resizable=0;points=[];autosize=1;strokeColor=none;fillColor=none;" parent="WIyWlLk6GJQsqaUBKTNV-1" vertex="1">
          <mxGeometry x="1600" y="440" width="30" height="30" as="geometry" />
        </mxCell>
        <mxCell id="UHiKsa5GbivfbWqM_ncp-55" value="0..*" style="text;html=1;align=center;verticalAlign=middle;resizable=0;points=[];autosize=1;strokeColor=none;fillColor=none;" parent="WIyWlLk6GJQsqaUBKTNV-1" vertex="1">
          <mxGeometry x="1340" y="180" width="40" height="30" as="geometry" />
        </mxCell>
        <mxCell id="UHiKsa5GbivfbWqM_ncp-56" value="1" style="text;html=1;align=center;verticalAlign=middle;resizable=0;points=[];autosize=1;strokeColor=none;fillColor=none;" parent="WIyWlLk6GJQsqaUBKTNV-1" vertex="1">
          <mxGeometry x="1840" y="440" width="30" height="30" as="geometry" />
        </mxCell>
        <mxCell id="UHiKsa5GbivfbWqM_ncp-58" value="0..*" style="text;html=1;align=center;verticalAlign=middle;resizable=0;points=[];autosize=1;strokeColor=none;fillColor=none;" parent="WIyWlLk6GJQsqaUBKTNV-1" vertex="1">
          <mxGeometry x="1340" y="140" width="40" height="30" as="geometry" />
        </mxCell>
        <mxCell id="UHiKsa5GbivfbWqM_ncp-59" value="1" style="text;html=1;align=center;verticalAlign=middle;resizable=0;points=[];autosize=1;strokeColor=none;fillColor=none;" parent="WIyWlLk6GJQsqaUBKTNV-1" vertex="1">
          <mxGeometry x="2080" y="440" width="30" height="30" as="geometry" />
        </mxCell>
        <mxCell id="UHiKsa5GbivfbWqM_ncp-62" value="1" style="text;html=1;align=center;verticalAlign=middle;resizable=0;points=[];autosize=1;strokeColor=none;fillColor=none;" parent="WIyWlLk6GJQsqaUBKTNV-1" vertex="1">
          <mxGeometry x="856" y="620" width="30" height="30" as="geometry" />
        </mxCell>
      </root>
    </mxGraphModel>
  </diagram>
</mxfile>
